<?xml version="1.0" encoding="UTF-8" standalone="no"?>
<!-- Created with Inkscape (http://www.inkscape.org/) -->

<svg
   xmlns:dc="http://purl.org/dc/elements/1.1/"
   xmlns:cc="http://creativecommons.org/ns#"
   xmlns:rdf="http://www.w3.org/1999/02/22-rdf-syntax-ns#"
   xmlns:svg="http://www.w3.org/2000/svg"
   xmlns="http://www.w3.org/2000/svg"
   xmlns:sodipodi="http://sodipodi.sourceforge.net/DTD/sodipodi-0.dtd"
   xmlns:inkscape="http://www.inkscape.org/namespaces/inkscape"
   width="210mm"
   height="297mm"
   id="svg9560"
   version="1.1"
   inkscape:version="0.48.4 r9939"
   sodipodi:docname="no-littering.svg">
  <title
     id="title3002">No Littering</title>
  <sodipodi:namedview
     id="base"
     pagecolor="#ffffff"
     bordercolor="#666666"
     borderopacity="1.0"
     inkscape:pageopacity="0.0"
     inkscape:pageshadow="2"
     inkscape:zoom="0.45150321"
     inkscape:cx="-41.822015"
     inkscape:cy="1112.5759"
     inkscape:document-units="px"
     inkscape:current-layer="layer1"
     showgrid="false"
     inkscape:window-width="1600"
     inkscape:window-height="1150"
     inkscape:window-x="0"
     inkscape:window-y="0"
     inkscape:window-maximized="1"
     inkscape:object-paths="true"
     inkscape:snap-intersection-paths="true"
     inkscape:snap-smooth-nodes="true"
     inkscape:object-nodes="true"
     inkscape:snap-midpoints="true"
     inkscape:snap-object-midpoints="true"
     inkscape:snap-global="true" />
  <defs
     id="defs9562" />
  <metadata
     id="metadata9565">
    <rdf:RDF>
      <cc:Work
         rdf:about="">
        <dc:format>image/svg+xml</dc:format>
        <dc:type
           rdf:resource="http://purl.org/dc/dcmitype/StillImage" />
        <cc:license
           rdf:resource="http://creativecommons.org/licenses/by-nc-sa/3.0/" />
        <dc:title>No Littering</dc:title>
        <dc:date>2016-03-03</dc:date>
        <dc:creator>
          <cc:Agent>
            <dc:title>Bernhard Grotz</dc:title>
          </cc:Agent>
        </dc:creator>
        <dc:rights>
          <cc:Agent>
            <dc:title>Bernhard Grotz</dc:title>
          </cc:Agent>
        </dc:rights>
        <dc:publisher>
          <cc:Agent>
            <dc:title>Bernhard Grotz</dc:title>
          </cc:Agent>
        </dc:publisher>
        <dc:source>http://vincehardy.com/?tag=windows</dc:source>
        <dc:contributor>
          <cc:Agent>
            <dc:title />
          </cc:Agent>
        </dc:contributor>
      </cc:Work>
      <cc:License
         rdf:about="http://creativecommons.org/licenses/by-nc-sa/3.0/">
        <cc:permits
           rdf:resource="http://creativecommons.org/ns#Reproduction" />
        <cc:permits
           rdf:resource="http://creativecommons.org/ns#Distribution" />
        <cc:requires
           rdf:resource="http://creativecommons.org/ns#Notice" />
        <cc:requires
           rdf:resource="http://creativecommons.org/ns#Attribution" />
        <cc:prohibits
           rdf:resource="http://creativecommons.org/ns#CommercialUse" />
        <cc:permits
           rdf:resource="http://creativecommons.org/ns#DerivativeWorks" />
        <cc:requires
           rdf:resource="http://creativecommons.org/ns#ShareAlike" />
      </cc:License>
    </rdf:RDF>
  </metadata>
  <g
     id="layer1"
     inkscape:groupmode="layer"
     inkscape:label="Ebene 1">
    <rect
       style="color:#000000;fill:#ffffff;fill-opacity:1;fill-rule:evenodd;stroke:#ffffff;stroke-width:1.5;stroke-linecap:butt;stroke-linejoin:miter;stroke-miterlimit:4;stroke-opacity:1;stroke-dasharray:none;stroke-dashoffset:0;marker:none;visibility:visible;display:inline;overflow:visible;enable-background:accumulate"
       id="rect12293"
       width="697.026"
       height="741.89893"
       x="23.534241"
       y="155.23163"
       inkscape:export-filename="/home/waldgeist/data/homepage/linux/pics/no-littering.png"
       inkscape:export-xdpi="150"
       inkscape:export-ydpi="150" />
    <g
       style="fill:#000000;stroke:#000000"
       transform="matrix(3.4625933,0,0,3.4625933,1347.0138,1314.4304)"
       id="g119864"
       inkscape:export-filename="/home/waldgeist/data/homepage/linux/pics/no-littering.png"
       inkscape:export-xdpi="150"
       inkscape:export-ydpi="150">
      <path
         sodipodi:type="arc"
         style="fill:#000000;fill-opacity:1;stroke:#000000"
         id="path119866"
         sodipodi:cx="-242.18407"
         sodipodi:cy="-44.410946"
         sodipodi:rx="25.001276"
         sodipodi:ry="25.001276"
         d="m -217.18279,-44.410946 c 0,13.807824 -11.19345,25.001276 -25.00128,25.001276 -13.80782,0 -25.00127,-11.193452 -25.00127,-25.001276 0,-13.807823 11.19345,-25.001276 25.00127,-25.001276 13.80783,0 25.00128,11.193453 25.00128,25.001276 z"
         transform="matrix(0.644886,0,0,0.644886,-89.3843,-274.24)" />
      <path
         id="path119868"
         d="m -263.34375,-279.59375 c -0.96691,0.008 -1.90218,0.44561 -2.53125,1.28125 l -16.8125,22.34375 -27.40625,0 c -1.78604,0 -3.21877,1.43271 -3.21875,3.21875 l 0,5.6875 c 0,1.78604 1.43271,3.21875 3.21875,3.21875 l 31.4375,0 c 0.98902,0 1.84704,-0.45947 2.4375,-1.15625 0.4219,-0.21595 0.81977,-0.5008 1.125,-0.90625 l 10.1875,-13.53125 0,36.09375 0,6.9375 0,71.875 c 0,4.477 3.61677,8.0625 8.09375,8.0625 l 0.5,0 c 4.477,0 8.09376,-3.5855 8.09375,-8.0625 l 0,-68.59375 5.34375,0 0,68.59375 c 0,4.477 3.5855,8.0625 8.0625,8.0625 l 0.5,0 c 4.477,0 8.09376,-3.5855 8.09375,-8.0625 l 0,-78.8125 c 0,-0.27981 -0.004,-0.54017 -0.0312,-0.8125 l 0,-35.4375 3.40625,0 0,16.5625 0,27.40625 c 0,3.12051 2.70476,5.625 6.0625,5.625 3.35775,0 6.0625,-2.50448 6.0625,-5.625 l 0,-52.15625 0,-3.03125 -0.0312,0 c 0.002,-0.084 0.0312,-0.16542 0.0312,-0.25 0,-4.71837 -3.84413,-8.53125 -8.5625,-8.53125 -0.0316,0 -0.0623,-3.4e-4 -0.0937,0 l -10.15625,0 -16.09375,0 -17.71875,0 z"
         style="fill:#000000;fill-opacity:1;stroke:#000000"
         inkscape:connector-curvature="0" />
    </g>
    <g
       transform="matrix(1.202167,0,0,1.202167,25.294881,-92.020059)"
       id="g10629"
       inkscape:export-filename="/home/waldgeist/data/homepage/linux/pics/no-littering.png"
       inkscape:export-xdpi="150"
       inkscape:export-ydpi="150">
      <path
         style="color:#000000;fill:none;stroke:#333333;stroke-width:16.63662338;stroke-linecap:round;stroke-linejoin:round;stroke-miterlimit:4;stroke-opacity:1;stroke-dasharray:none;stroke-dashoffset:0;marker:none;visibility:visible;display:inline;overflow:visible;enable-background:accumulate"
         d="m 91.241601,568.1086 31.784979,200.43237 93.48525,0 1.12182,-0.37394"
         id="path10625"
         inkscape:connector-curvature="0" />
      <path
         inkscape:connector-curvature="0"
         id="path10627"
         d="m 249.41863,567.73466 -31.78498,200.43237 -93.48525,0 -1.12182,-0.37394"
         style="color:#000000;fill:none;stroke:#333333;stroke-width:16.63662338;stroke-linecap:round;stroke-linejoin:round;stroke-miterlimit:4;stroke-opacity:1;stroke-dasharray:none;stroke-dashoffset:0;marker:none;visibility:visible;display:inline;overflow:visible;enable-background:accumulate" />
    </g>
    <path
       style="color:#000000;fill:none;stroke:#ff0000;stroke-width:2;stroke-linecap:round;stroke-linejoin:round;stroke-miterlimit:4;stroke-opacity:1;stroke-dasharray:none;stroke-dashoffset:0;marker:none;visibility:visible;display:inline;overflow:visible;enable-background:accumulate"
       d="m 221.51053,497.41963 c 31.58833,14.80974 64.67523,18.19474 98.71323,14.32826"
       id="path11967"
       inkscape:connector-curvature="0"
       sodipodi:nodetypes="cc"
       inkscape:export-filename="/home/waldgeist/data/homepage/linux/pics/no-littering.png"
       inkscape:export-xdpi="150"
       inkscape:export-ydpi="150" />
    <path
       style="color:#000000;fill:none;stroke:#ff0000;stroke-width:2;stroke-linecap:round;stroke-linejoin:round;stroke-miterlimit:4;stroke-opacity:1;stroke-dasharray:none;stroke-dashoffset:0;marker:none;visibility:visible;display:inline;overflow:visible;enable-background:accumulate"
       d="m 175.83266,548.94039 c 14.81186,39.04433 84.5451,10.63059 104.8445,21.33995"
       id="path11969"
       inkscape:connector-curvature="0"
       sodipodi:nodetypes="cc"
       inkscape:export-filename="/home/waldgeist/data/homepage/linux/pics/no-littering.png"
       inkscape:export-xdpi="150"
       inkscape:export-ydpi="150" />
    <g
       transform="matrix(0.52392026,0,0,0.52100379,782.18546,519.86395)"
       id="g12125"
       inkscape:export-filename="/home/waldgeist/data/homepage/linux/pics/no-littering.png"
       inkscape:export-xdpi="150"
       inkscape:export-ydpi="150">
      <path
         inkscape:connector-curvature="0"
         d="m -1096.9809,8.2618251 c 40.021,46.7101409 130.73862,26.5087989 177.60575,32.4439449"
         style="color:#000000;fill:none;stroke:#ff0000;stroke-width:3.82804441;stroke-linecap:round;stroke-linejoin:round;stroke-miterlimit:4;stroke-opacity:1;stroke-dasharray:none;stroke-dashoffset:0;marker:none;visibility:visible;display:inline;overflow:visible;enable-background:accumulate"
         id="path12127"
         sodipodi:nodetypes="cc" />
    </g>
    <path
       sodipodi:nodetypes="cc"
       inkscape:connector-curvature="0"
       id="path12170"
       d="m 175.98825,548.29324 c 29.51282,-11.20621 37.53497,-33.81482 45.52228,-50.87361"
       style="color:#000000;fill:none;stroke:#ff0000;stroke-width:2;stroke-linecap:round;stroke-linejoin:round;stroke-miterlimit:4;stroke-opacity:1;stroke-dasharray:none;stroke-dashoffset:0;marker:none;visibility:visible;display:inline;overflow:visible;enable-background:accumulate"
       inkscape:export-filename="/home/waldgeist/data/homepage/linux/pics/no-littering.png"
       inkscape:export-xdpi="150"
       inkscape:export-ydpi="150" />
    <path
       sodipodi:nodetypes="cc"
       inkscape:connector-curvature="0"
       id="path12172"
       d="m 280.68206,570.71215 c -6.6387,-26.12916 46.182,-30.43892 39.6694,-59.28068"
       style="color:#000000;fill:none;stroke:#ff0000;stroke-width:2;stroke-linecap:round;stroke-linejoin:round;stroke-miterlimit:4;stroke-opacity:1;stroke-dasharray:none;stroke-dashoffset:0;marker:none;visibility:visible;display:inline;overflow:visible;enable-background:accumulate"
       inkscape:export-filename="/home/waldgeist/data/homepage/linux/pics/no-littering.png"
       inkscape:export-xdpi="150"
       inkscape:export-ydpi="150" />
    <g
       id="g12219"
       transform="matrix(0.62230817,0,0,0.61884401,871.23626,525.18087)"
       inkscape:export-filename="/home/waldgeist/data/homepage/linux/pics/no-littering.png"
       inkscape:export-xdpi="150"
       inkscape:export-ydpi="150">
      <path
         id="path12221"
         style="color:#000000;fill:none;stroke:#ff0000;stroke-width:3.22282434;stroke-linecap:round;stroke-linejoin:round;stroke-miterlimit:4;stroke-opacity:1;stroke-dasharray:none;stroke-dashoffset:0;marker:none;visibility:visible;display:inline;overflow:visible;enable-background:accumulate"
         d="m -1043.6693,73.010736 c 19.7294,-32.3827 72.20746,-55.730244 73.47941,-95.541922"
         inkscape:connector-curvature="0" />
    </g>
    <path
       style="color:#000000;fill:#aa0000;fill-opacity:1;fill-rule:evenodd;stroke:#808080;stroke-width:1.5;stroke-linecap:round;stroke-linejoin:round;stroke-miterlimit:4;stroke-opacity:1;stroke-dashoffset:0;marker:none;visibility:visible;display:inline;overflow:visible;enable-background:accumulate"
       d="m 221.51053,497.41963 c 13.91403,5.80648 30.05793,10.37275 45.96863,13.81795 0.5128,8.12126 -4.9958,19.83918 -16.82,29.635 -15.7113,-0.90557 -35.27286,-5.03657 -43.20422,-16.70419 5.46512,-8.91625 10.34852,-17.83251 14.05559,-26.74876 z"
       id="rect12284"
       inkscape:connector-curvature="0"
       sodipodi:nodetypes="ccccc"
       inkscape:export-filename="/home/waldgeist/data/homepage/linux/pics/no-littering.png"
       inkscape:export-xdpi="150"
       inkscape:export-ydpi="150" />
    <path
       sodipodi:nodetypes="ccccc"
       inkscape:connector-curvature="0"
       id="path12287"
       d="m 250.84616,540.68561 c 8.3978,-0.438 41.1709,-1.6056 51.3429,0.3862 -7.8291,7.6466 -23.2086,11.46847 -21.6254,29.14934 -19.0767,-5.57983 -27.0412,0.96532 -58.81134,0.14199 4.15634,-9.47716 21.28244,-22.97378 29.09384,-29.67753 z"
       style="color:#000000;fill:#aa8800;fill-opacity:1;fill-rule:evenodd;stroke:#808080;stroke-width:1.5;stroke-linecap:round;stroke-linejoin:round;stroke-miterlimit:4;stroke-opacity:1;stroke-dashoffset:0;marker:none;visibility:visible;display:inline;overflow:visible;enable-background:accumulate"
       inkscape:export-filename="/home/waldgeist/data/homepage/linux/pics/no-littering.png"
       inkscape:export-xdpi="150"
       inkscape:export-ydpi="150" />
    <path
       style="color:#000000;fill:#003380;fill-opacity:1;fill-rule:evenodd;stroke:#808080;stroke-width:1.5;stroke-linecap:round;stroke-linejoin:round;stroke-miterlimit:4;stroke-opacity:1;stroke-dashoffset:0;marker:none;visibility:visible;display:inline;overflow:visible;enable-background:accumulate"
       d="m 207.45494,524.16839 c 8.3978,-0.438 33.25932,14.52333 43.43132,16.51513 -7.8291,7.6466 -21.9253,16.36162 -29.13394,29.67962 -10.83695,0.0668 -38.55795,0.24604 -46.20012,-21.79669 17.77378,-8.5517 22.70988,-12.77188 31.90274,-24.39806 z"
       id="path12289"
       inkscape:connector-curvature="0"
       sodipodi:nodetypes="ccccc"
       inkscape:export-filename="/home/waldgeist/data/homepage/linux/pics/no-littering.png"
       inkscape:export-xdpi="150"
       inkscape:export-ydpi="150" />
    <path
       style="color:#000000;fill:#217821;fill-opacity:1;fill-rule:evenodd;stroke:#808080;stroke-width:1.5;stroke-linecap:round;stroke-linejoin:round;stroke-miterlimit:4;stroke-opacity:1;stroke-dashoffset:0;marker:none;visibility:visible;display:inline;overflow:visible;enable-background:accumulate"
       d="m 267.47916,511.23763 c 8.3978,-0.438 42.5726,-1.48154 52.7446,0.51026 3.9095,15.43104 -9.6015,22.81649 -18.2263,29.28728 -14.8893,-1.03071 -19.035,-1.08161 -51.3675,-0.16428 13.5049,-10.22504 16.3191,-23.84902 16.8492,-29.63326 z"
       id="path12291"
       inkscape:connector-curvature="0"
       sodipodi:nodetypes="ccccc"
       inkscape:export-filename="/home/waldgeist/data/homepage/linux/pics/no-littering.png"
       inkscape:export-xdpi="150"
       inkscape:export-ydpi="150" />
  </g>
</svg>
